<svg width="114" height="239" viewBox="0 0 114 239" fill="none" xmlns="http://www.w3.org/2000/svg">
    <path d="M97.1767 0.646729H86.7719C87.2504 1.81648 87.4331 3.08563 87.3038 4.34235C87.1744 5.59907 86.7371 6.80479 86.0302 7.85328C85.3234 8.90177 84.3688 9.76085 83.2505 10.3548C82.1322 10.9488 80.8845 11.2595 79.6174 11.2594H33.9487C32.6816 11.2594 31.4341 10.9486 30.3159 10.3546C29.1976 9.76057 28.2431 8.90148 27.5363 7.853C26.8296 6.80453 26.3923 5.59885 26.263 4.34218C26.1337 3.08552 26.3164 1.81643 26.7949 0.646729H17.0761C12.7629 0.646729 8.62632 2.35504 5.57641 5.39585C2.52649 8.43667 0.813065 12.5609 0.813065 16.8613V222.364C0.813065 226.665 2.52649 230.789 5.57641 233.83C8.62632 236.871 12.7629 238.579 17.0761 238.579H97.1767C101.49 238.579 105.627 236.871 108.676 233.83C111.726 230.789 113.44 226.665 113.44 222.364V222.364V16.8609C113.44 12.5606 111.726 8.43647 108.676 5.39573C105.626 2.35499 101.49 0.646729 97.1767 0.646729V0.646729Z" fill="white"/>
</svg>
